<?xml version="1.0" encoding="utf-8"?>
<!-- Generator: Adobe Illustrator 23.0.2, SVG Export Plug-In . SVG Version: 6.00 Build 0)  -->
<svg version="1.1" id="Réteg_1" xmlns="http://www.w3.org/2000/svg" xmlns:xlink="http://www.w3.org/1999/xlink" x="0px" y="0px"
	 viewBox="0 0 500 100" style="enable-background:new 0 0 500 100;" xml:space="preserve">
<style type="text/css">
	.st0{fill:none;}
	.st1{fill:#91C154;}
	.st2{fill:#2978A9;}
	.st3{fill:url(#SVGID_1_);}
	.st4{fill:url(#SVGID_2_);}
	.st5{clip-path:url(#SVGID_4_);fill:#91C154;}
	.st6{clip-path:url(#SVGID_6_);fill:#91C154;}
	.st7{clip-path:url(#SVGID_8_);fill:#91C154;}
	.st8{clip-path:url(#SVGID_10_);fill:#91C154;}
</style>
<g>
	<path class="st0" d="M166.5,41.9h-3c-0.3,0-0.5,0.1-0.7,0.3c-0.2,0.2-0.3,0.5-0.3,0.8v16.5c0,0.3,0.1,0.5,0.3,0.8
		c0.2,0.2,0.4,0.3,0.7,0.3h3c0.3,0,0.5-0.1,0.7-0.3c0.2-0.2,0.3-0.5,0.3-0.8V43c0-0.3-0.1-0.5-0.3-0.8C167,42,166.8,41.9,166.5,41.9
		z"/>
</g>
<g>
	<path class="st0" d="M121.9,42.4h-3c-0.3,0-0.5,0.1-0.7,0.3c-0.2,0.2-0.3,0.5-0.3,0.8v4.9h5.1v-4.9c0-0.3-0.1-0.5-0.3-0.8
		C122.4,42.5,122.2,42.4,121.9,42.4z"/>
</g>
<g>
	<path class="st0" d="M211,42.6h-3c-0.3,0-0.5,0.1-0.7,0.3c-0.2,0.2-0.3,0.5-0.3,0.8v15.2c0,0.3,0.1,0.5,0.3,0.8
		c0.2,0.2,0.4,0.3,0.7,0.3h3c0.3,0,0.5-0.1,0.7-0.3c0.2-0.2,0.3-0.5,0.3-0.8V43.7c0-0.3-0.1-0.5-0.3-0.8
		C211.5,42.7,211.3,42.6,211,42.6z"/>
</g>
<g>
	<path class="st0" d="M71.5,41.9h-3c-0.3,0-0.5,0.1-0.7,0.3c-0.2,0.2-0.3,0.5-0.3,0.8v16.5c0,0.3,0.1,0.5,0.3,0.8
		c0.2,0.2,0.4,0.3,0.7,0.3h3c0.3,0,0.5-0.1,0.7-0.3c0.2-0.2,0.3-0.5,0.3-0.8V43c0-0.3-0.1-0.5-0.3-0.8C72.1,42,71.8,41.9,71.5,41.9z
		"/>
</g>
<g>
	<path class="st1" d="M396,27.6c2.2,0,4-1.8,4-4c0-2.2-1.8-4-4-4c-2.2,0-4,1.8-4,4C392,25.8,393.8,27.6,396,27.6z"/>
</g>
<g>
	<path class="st1" d="M380.7,38.9l5.9,5.2c0.3,0.2,0.4,0.6,0.4,1l0,9.3c0,2.2,4,2.3,4,0l0-11.7c0-0.4-0.2-0.8-0.4-1.1l-3.4-3.6
		c-0.3-0.3-0.3-0.8,0-1.1l3.7-3.7c0.3-0.3,0.8-0.3,1.1,0l1,1c2.6,2.6,5.9,4.2,10.1,4.2c2.1,0,2.1-4,0-4c-3,0-5.3-1.2-7.1-3l-3.7-3.8
		c-1-0.8-2-1.2-3.2-1.2c-1.2,0-2.2,0.4-2.8,1.2l-5.5,5.6c-0.8,0.8-1.2,1.8-1.2,2.8C379.5,37.3,379.9,38.3,380.7,38.9z"/>
</g>
<g>
	<path class="st1" d="M328.5,44.3l2.1,0.3h0l2.9,0.4c0.7,0.1,1.4-0.4,1.5-1.1l1.6-11c0.1-0.7-0.4-1.4-1.1-1.5l-2.9-0.4
		c-0.7-0.1-1.4,0.4-1.5,1.1l-0.5,3.4l-0.9-0.1c-0.7-0.1-1.4,0.4-1.5,1.1l-0.9,6.3C327.2,43.5,327.7,44.2,328.5,44.3z"/>
</g>
<g>
	<path class="st1" d="M345.5,28.4c2.3-0.1,4.1-2.1,4-4.4c-0.1-2.3-2.1-4.1-4.4-4c-2.3,0.1-4.1,2.1-4,4.4
		C341.2,26.7,343.2,28.5,345.5,28.4z"/>
</g>
<g>
	<path class="st2" d="M73.1,37.3h-6.2c-4.5,0-6.8,2.4-6.8,7.3V58c0,4.8,2.3,7.3,6.8,7.3h6.2c4.5,0,6.8-2.4,6.8-7.3V44.6
		C79.9,39.7,77.7,37.3,73.1,37.3z M72.6,59.5c0,0.3-0.1,0.5-0.3,0.8c-0.2,0.2-0.4,0.3-0.7,0.3h-3c-0.3,0-0.5-0.1-0.7-0.3
		c-0.2-0.2-0.3-0.5-0.3-0.8V43c0-0.3,0.1-0.5,0.3-0.8c0.2-0.2,0.5-0.3,0.7-0.3h3c0.3,0,0.5,0.1,0.7,0.3c0.2,0.2,0.3,0.5,0.3,0.8
		V59.5z"/>
</g>
<g>
	<polygon class="st2" points="95.2,55.1 90.9,29.1 83.4,29.1 90.7,64.7 99.6,64.7 106.9,29.1 99.5,29.1 	"/>
</g>
<g>
	<path class="st2" d="M130.3,53.3v-8.7c0-4.8-2.3-7.3-6.8-7.3h-6.2c-4.5,0-6.8,2.4-6.8,7.3V58c0,4.8,2.3,7.3,6.8,7.3h6.2
		c4.5,0,6.8-2.4,6.8-7.3v-2.1h-7.4v3c0,0.3-0.1,0.5-0.3,0.8c-0.2,0.2-0.5,0.3-0.7,0.3h-3c-0.3,0-0.5-0.1-0.7-0.3
		c-0.2-0.2-0.3-0.5-0.3-0.8v-5.6H130.3z M117.8,43.5c0-0.3,0.1-0.5,0.3-0.8c0.2-0.2,0.4-0.3,0.7-0.3h3c0.3,0,0.5,0.1,0.7,0.3
		c0.2,0.2,0.3,0.5,0.3,0.8v5h-5.1V43.5z"/>
</g>
<g>
	<polygon class="st2" points="132.6,35.7 138.4,35.7 138.4,64.7 146,64.7 146,35.7 151.8,35.7 151.8,29.1 132.6,29.1 	"/>
</g>
<g>
	<path class="st2" d="M168.1,37.3h-6.2c-4.5,0-6.8,2.4-6.8,7.3V58c0,4.8,2.3,7.3,6.8,7.3h6.2c4.5,0,6.8-2.4,6.8-7.3V44.6
		C174.9,39.7,172.6,37.3,168.1,37.3z M167.5,59.5c0,0.3-0.1,0.5-0.3,0.8c-0.2,0.2-0.5,0.3-0.7,0.3h-3c-0.3,0-0.5-0.1-0.7-0.3
		c-0.2-0.2-0.3-0.5-0.3-0.8V43c0-0.3,0.1-0.5,0.3-0.8c0.2-0.2,0.4-0.3,0.7-0.3h3c0.3,0,0.5,0.1,0.7,0.3c0.2,0.2,0.3,0.5,0.3,0.8
		V59.5z"/>
</g>
<g>
	<polygon class="st1" points="187.8,29.1 180.1,29.1 180.1,64.7 196.2,64.7 196.2,58.2 187.8,58.2 	"/>
</g>
<g>
	<path class="st1" d="M213.2,39.8c-1.1-1.7-3-2.5-5.7-2.5h-1.2c-4.5,0-6.8,2.4-6.8,7.2V58c0,4.8,2.3,7.2,6.8,7.2h1.2
		c2.6,0,4.5-0.8,5.7-2.5v2h6.2V37.9h-6.2V39.8z M212,58.8c0,0.3-0.1,0.5-0.3,0.8c-0.2,0.2-0.4,0.3-0.7,0.3h-3
		c-0.3,0-0.5-0.1-0.7-0.3c-0.2-0.2-0.3-0.5-0.3-0.8V43.7c0-0.3,0.1-0.5,0.3-0.8c0.2-0.2,0.4-0.3,0.7-0.3h3c0.3,0,0.5,0.1,0.7,0.3
		c0.2,0.2,0.3,0.5,0.3,0.8V58.8z"/>
</g>
<g>
	<path class="st1" d="M236.9,58.8c0,0.3-0.1,0.5-0.3,0.8c-0.2,0.2-0.4,0.3-0.7,0.3h-3c-0.3,0-0.5-0.1-0.7-0.3
		c-0.2-0.2-0.3-0.5-0.3-0.8v-21h-7.4V58c0,4.8,2.3,7.2,6.8,7.2h1.2c2.3,0,4-0.6,5.2-1.9v1.4h6.7V37.9h-7.4V58.8z"/>
</g>
<g>
	<path class="st1" d="M261.9,47.9h-5.7c-0.3,0-0.5-0.1-0.7-0.3c-0.2-0.2-0.3-0.5-0.3-0.8v-2.9c0-0.3,0.1-0.5,0.3-0.8
		c0.2-0.2,0.4-0.3,0.7-0.3h4.2c0.3,0,0.5,0.1,0.7,0.3c0.2,0.2,0.3,0.5,0.3,0.8v1.7h6.8v-1c0-4.8-2.3-7.2-6.8-7.2h-5.8
		c-4.5,0-6.8,2.4-6.8,7.2V47c0,4.8,2.3,7.2,6.8,7.2h5.7c0.3,0,0.5,0.1,0.7,0.3c0.2,0.2,0.3,0.5,0.3,0.8v3.3c0,0.3-0.1,0.5-0.3,0.8
		c-0.2,0.2-0.4,0.3-0.7,0.3h-4.5c-0.3,0-0.5-0.1-0.7-0.3c-0.2-0.2-0.3-0.5-0.3-0.8v-2.4h-6.8V58c0,4.8,2.3,7.2,6.8,7.2h6.1
		c4.5,0,6.8-2.4,6.8-7.2v-2.9C268.7,50.3,266.4,47.9,261.9,47.9z"/>
</g>
<g>
	<rect x="274" y="37.9" class="st1" width="7.4" height="26.8"/>
</g>
<g>
	<path class="st1" d="M277.7,27.6c-1.1,0-2.1,0.4-2.9,1.2c-0.8,0.8-1.2,1.7-1.2,2.9c0,1.1,0.4,2.1,1.2,2.9c0.8,0.8,1.8,1.2,2.9,1.2
		c1.1,0,2-0.4,2.8-1.2c0.8-0.8,1.2-1.7,1.2-2.9c0-1.1-0.4-2.1-1.2-2.9C279.7,28,278.8,27.6,277.7,27.6z"/>
</g>
<g>
	<path class="st1" d="M293.9,32.1h-7.4V58c0,4.8,2.3,7.2,6.8,7.2h5.2v-4.8h-2.2c-0.8,0-1.4-0.2-1.8-0.5c-0.4-0.4-0.6-1.1-0.6-2.1
		V43.2h4.6v-5.3h-4.6V32.1z"/>
</g>
<g>
	<linearGradient id="SVGID_1_" gradientUnits="userSpaceOnUse" x1="400.0855" y1="59.9333" x2="405.7955" y2="59.9333">
		<stop  offset="1.385225e-07" style="stop-color:#2978A9"/>
		<stop  offset="0.1009" style="stop-color:#2E7CA5"/>
		<stop  offset="0.2249" style="stop-color:#3D8698"/>
		<stop  offset="0.3608" style="stop-color:#569884"/>
		<stop  offset="0.5045" style="stop-color:#79B068"/>
		<stop  offset="0.5905" style="stop-color:#91C154"/>
		<stop  offset="1" style="stop-color:#91C154"/>
	</linearGradient>
	<polygon class="st3" points="400.2,59.9 400.1,59.9 405.8,60 	"/>
	<linearGradient id="SVGID_2_" gradientUnits="userSpaceOnUse" x1="6.518" y1="54.4633" x2="479.9902" y2="54.4633">
		<stop  offset="1.385225e-07" style="stop-color:#2978A9"/>
		<stop  offset="0.1009" style="stop-color:#2E7CA5"/>
		<stop  offset="0.2249" style="stop-color:#3D8698"/>
		<stop  offset="0.3608" style="stop-color:#569884"/>
		<stop  offset="0.5045" style="stop-color:#79B068"/>
		<stop  offset="0.5905" style="stop-color:#91C154"/>
		<stop  offset="1" style="stop-color:#91C154"/>
	</linearGradient>
	<path class="st4" d="M478.7,64.3c-0.8-0.9-1.7-1.4-2.3-1.7c-4.1-2.1-8.5-2.1-12.7-2c-0.6,0-1.3,0-1.9,0l-82.8-0.9h0l-8.3-0.1l0,0
		c0,0,0,0,0,0l-17-0.2l-1.8,0l-1.6,0l-4.2-0.1l-6.7-0.1l-2.1,0c-0.3,0-0.9,0-1.6,0h-2.2h-24.1l10.5-16.5v-4.9h-18.1v5.4h10.4
		l-10.4,16.3v5.2l32.8-0.7c0,0,1.3,0,2,0c1,0,1.9,0,2.2,0l123,1.1c0.7,0,1.3,0,2,0c3.9,0,7.5,0,10.7,1.6c0.3,0.1,0.8,0.4,1,0.7
		c0.2,0.2,0.2,0.3,0.2,0.3c0,0.4-1,1.5-3.3,2.6c-3.4,1.7-7.2,2.6-12.2,2.8c-1.7,0.1-3.4,0.2-5.1,0.2c-2.2,0.1-4.4,0.2-6.5,0.2
		c-2.6,0.1-5.3,0.2-7.9,0.2c-3.1,0.1-6.1,0.1-9.2,0.2c-3.4,0.1-6.9,0.2-10.4,0.2c-3.8,0.1-7.6,0.1-11.4,0.2
		c-4.1,0.1-8.3,0.1-12.4,0.2c-4.5,0.1-8.9,0.1-13.3,0.2c-4.7,0.1-9.4,0.1-14.1,0.2c-5,0.1-9.9,0.1-14.9,0.2
		c-5.2,0-10.3,0.1-15.5,0.1c-5.3,0.1-10.7,0.1-16,0.1c-5.5,0.1-11,0.1-16.5,0.1c-5.6,0-11.2,0.1-16.8,0.1c-5.7,0-11.4,0-17.1,0.1
		c-5.8,0-11.5,0.1-17.2,0.1c-5.8,0-11.5,0-17.3,0.1c-5.8,0-11.5,0-17.3,0c-5.7,0-11.5,0-17.2,0c-5.7,0-11.3,0-17,0
		c-5.6,0-11.1,0-16.7,0c-5.4,0-10.9,0-16.3-0.1c-5.3,0-10.5-0.1-15.8-0.1c-5.1,0-10.2-0.1-15.3-0.1c-4.9,0-9.7-0.1-14.6-0.1
		c-4.6-0.1-9.2-0.1-13.8-0.2c-4.3-0.1-8.7-0.1-13-0.2c-4-0.1-8-0.2-12.1-0.2c-3.7-0.1-7.4-0.2-11-0.3c-3.3-0.1-6.6-0.2-9.9-0.3
		c-2.9-0.1-5.8-0.2-8.7-0.3c-2.5-0.1-4.9-0.2-7.4-0.4c-2.3-0.1-4.2-0.3-6-0.4c-1.3-0.1-2.9-0.2-4.5-0.4c-1-0.1-1.9-0.2-2.7-0.4
		c-6.6-1.5-7.9-3-8.1-3.3c0.6-1.4,6.5-4,11.2-4.2h7.4V35.2c0-0.3,0.1-0.6,0.3-0.8c0.2-0.2,0.5-0.3,0.7-0.3h3c0.3,0,0.5,0.1,0.7,0.3
		c0.2,0.2,0.3,0.5,0.3,0.8v29.5h7.7V35.2c0-0.3,0.1-0.6,0.3-0.8c0.2-0.2,0.5-0.3,0.7-0.3h3c0.3,0,0.5,0.1,0.7,0.3
		c0.2,0.2,0.3,0.5,0.3,0.8v29.5h7.7V35.8c0-4.8-2.3-7.3-6.8-7.3h-4.1c-2.8,0-4.7,0.9-5.7,2.6c-1.1-1.8-3-2.6-5.7-2.6h-4.1
		c-4.5,0-6.8,2.4-6.8,7.3v24.3c-4.2,0.2-14.9,3-15.4,8.4c-0.4,4.7,6.4,6.8,11.6,8c1.1,0.3,2.1,0.4,3.2,0.5c1.7,0.2,3.3,0.3,4.6,0.5
		c1.8,0.1,3.8,0.3,6.1,0.4c2.5,0.1,5,0.3,7.5,0.4c2.9,0.1,5.8,0.2,8.7,0.3c3.3,0.1,6.6,0.2,10,0.3c3.7,0.1,7.4,0.2,11.1,0.3
		c4,0.1,8,0.2,12.1,0.2c4.3,0.1,8.7,0.1,13,0.2c4.6,0.1,9.2,0.1,13.8,0.2c4.9,0,9.7,0.1,14.6,0.1c5.1,0,10.2,0.1,15.3,0.1
		c5.3,0,10.5,0.1,15.8,0.1c5.4,0,10.9,0,16.3,0.1c5.6,0,11.1,0,16.7,0c5.7,0,11.3,0,17,0h6.4c3.6,0,7.2,0,10.8,0
		c5.8,0,11.5,0,17.3,0c5.8,0,11.5,0,17.3-0.1c5.8,0,11.5,0,17.2-0.1c5.7,0,11.4,0,17.1-0.1c5.6,0,11.2-0.1,16.8-0.1
		c5.5,0,11-0.1,16.5-0.1c5.3,0,10.7-0.1,16-0.1c5.2,0,10.3-0.1,15.5-0.1c5,0,9.9-0.1,14.9-0.2c4.7-0.1,9.4-0.1,14.1-0.2
		c4.4-0.1,8.9-0.1,13.3-0.2c4.1-0.1,8.3-0.1,12.4-0.2c3.8-0.1,7.6-0.1,11.5-0.2c3.5-0.1,6.9-0.1,10.4-0.2c3.1-0.1,6.1-0.1,9.2-0.2
		c2.6-0.1,5.3-0.1,7.9-0.2c2.2-0.1,4.4-0.2,6.6-0.2c1.7-0.1,3.4-0.1,5.1-0.2c5.6-0.3,10-1.4,13.9-3.3c2.3-1.1,5.2-3.1,5.7-5.8
		C480.1,67.4,480,65.9,478.7,64.3z"/>
</g>
<g>
	<g>
		<defs>
			<path id="SVGID_3_" d="M478.7,27.1c-8.2,0-14.8,6.6-14.8,14.8c0,5.9,4.2,14.4,8.1,20.3l6.6,8.9c0.8-0.9,1.4-1.7,2.1-2.6
				c0.8-1,1.6-2,2.4-3.1c0.4-0.4,0.7-0.9,1-1.4c0.3-0.5,0.7-0.9,1-1.4c0.2-0.2,0.3-0.5,0.5-0.7c0.1-0.1,0.2-0.3,0.3-0.4
				c0-0.1,0.2-0.3,0.2-0.4c3.7-5.5,7.4-13.7,7.4-19.3C493.5,33.7,486.9,27.1,478.7,27.1z M478.6,48.6c-2.9,0-5.2-2.4-5.2-5.3
				c0-2.9,2.3-5.3,5.2-5.3c3,0,5.3,2.4,5.3,5.3C483.9,46.2,481.6,48.6,478.6,48.6z"/>
		</defs>
		<use xlink:href="#SVGID_3_"  style="overflow:visible;fill:#91C154;"/>
		<clipPath id="SVGID_4_">
			<use xlink:href="#SVGID_3_"  style="overflow:visible;"/>
		</clipPath>
		<rect x="473.4" y="38" class="st5" width="10.5" height="10.6"/>
		<rect x="463.9" y="27.1" class="st5" width="29.6" height="44"/>
		<rect x="493.5" y="27.1" class="st5" width="0" height="44"/>
	</g>
</g>
<g>
	<g>
		<defs>
			<path id="SVGID_5_" d="M428.7,59.4l-1.4,1.3l19.7,0l-1.1-1.3c3.7,0,6.7-3,6.7-6.7V34.5c0-5.7-4.8-7.2-11.5-7.6
				c-2.7-0.2-5.2-0.2-7.7,0c-6.6,0.3-11.5,1.9-11.5,7.5l0,9.7v8.5C422,56.4,425,59.4,428.7,59.4z M448.8,52.8c0,0.1,0,0.1,0,0.2
				c0,0.1,0,0.1,0,0.2c0,0.3-0.1,0.6-0.3,0.8c0,0.1-0.1,0.2-0.1,0.2c-0.1,0.1-0.1,0.2-0.2,0.3c-0.2,0.3-0.6,0.5-0.9,0.7
				c-0.1,0-0.1,0.1-0.2,0.1c-0.1,0-0.2,0.1-0.3,0.1c-0.1,0-0.2,0-0.2,0.1c-0.1,0-0.2,0-0.3,0c-0.1,0-0.2,0-0.4,0c-0.1,0-0.3,0-0.4,0
				c-0.1,0-0.2,0-0.3-0.1c-0.1,0-0.3-0.1-0.4-0.1c-0.1,0-0.2-0.1-0.3-0.2c-0.2-0.1-0.4-0.3-0.6-0.5c-0.1-0.1-0.2-0.3-0.3-0.4
				c-0.1-0.2-0.3-0.4-0.3-0.7c0-0.1-0.1-0.2-0.1-0.3c0-0.1,0-0.2-0.1-0.3c0-0.1,0-0.1,0-0.2c0,0,0-0.1,0-0.1c0,0,0,0,0-0.1
				c0-0.5,0.1-0.9,0.3-1.3c0,0,0-0.1,0.1-0.1c0,0,0-0.1,0.1-0.1c0.1-0.1,0.1-0.1,0.2-0.2s0.1-0.1,0.2-0.2c0.3-0.3,0.7-0.5,1.1-0.7
				c0,0,0.1,0,0.1,0c0.1,0,0.1,0,0.2,0c0.2,0,0.4-0.1,0.6-0.1h0.1c0.1,0,0.1,0,0.2,0c0.1,0,0.1,0,0.2,0c0.2,0,0.3,0.1,0.5,0.1
				c0.1,0,0.2,0.1,0.3,0.1c0.1,0,0.2,0.1,0.3,0.2c0.1,0,0.1,0.1,0.2,0.2c0.1,0.1,0.2,0.1,0.2,0.2c0,0,0.1,0.1,0.1,0.1
				c0.2,0.2,0.3,0.4,0.5,0.7c0,0,0,0,0,0.1c0,0.1,0.1,0.2,0.1,0.3c0,0,0,0.1,0,0.1c0,0,0,0.1,0,0.1s0,0.1,0,0.1c0,0,0,0.1,0,0.1
				c0,0.1,0,0.2,0,0.2c0,0.1,0,0.2,0,0.2V52.8z M439.2,34.5l9.5,0h0l0,9.5h-9.6L439.2,34.5z M425.9,34.5l9.6,0h0l0,9.5v0l-9.6,0h0
				L425.9,34.5z M425.9,52.4c0-0.1,0-0.2,0-0.3c0-0.1,0-0.1,0-0.2c0-0.2,0.1-0.3,0.2-0.5c0-0.1,0.1-0.2,0.2-0.3
				c0.1-0.1,0.1-0.2,0.2-0.3c0.1-0.1,0.2-0.2,0.3-0.3c0.1-0.1,0.1-0.1,0.2-0.2c0.2-0.2,0.4-0.3,0.7-0.4c0.1,0,0.2-0.1,0.3-0.1
				c0.1,0,0.3-0.1,0.4-0.1c0.1,0,0.2,0,0.3,0h0.1c0.1,0,0.2,0,0.2,0c0,0,0.1,0,0.1,0c0.1,0,0.2,0,0.3,0c0.1,0,0.2,0,0.3,0.1
				c0.2,0,0.3,0.1,0.5,0.2c0.2,0.1,0.5,0.3,0.6,0.5c0.1,0.1,0.2,0.3,0.3,0.4c0.1,0.1,0.2,0.3,0.3,0.5c0,0.1,0.1,0.2,0.1,0.3
				c0,0.1,0.1,0.3,0.1,0.4c0,0.2,0,0.3,0,0.5c0,0.5-0.1,1-0.4,1.4c0,0.1-0.1,0.1-0.1,0.2c-0.1,0.2-0.2,0.3-0.4,0.4v0
				c-0.1,0.1-0.3,0.2-0.4,0.3c-0.1,0.1-0.2,0.1-0.3,0.2c-0.1,0-0.1,0.1-0.2,0.1c-0.2,0.1-0.5,0.2-0.7,0.2c-0.1,0-0.3,0-0.4,0h-0.1
				c-0.1,0-0.2,0-0.3,0c-0.1,0-0.1,0-0.1,0c0,0-0.1,0-0.1,0c-0.2,0-0.4-0.1-0.6-0.2c-0.1-0.1-0.2-0.1-0.3-0.2
				c-0.1-0.1-0.2-0.1-0.3-0.2c-0.2-0.1-0.3-0.3-0.4-0.4c-0.1-0.1-0.1-0.1-0.2-0.2c-0.2-0.2-0.3-0.5-0.3-0.7c0-0.1,0-0.1,0-0.2
				c-0.1-0.2-0.1-0.5-0.1-0.7C425.8,52.5,425.9,52.4,425.9,52.4z"/>
		</defs>
		<use xlink:href="#SVGID_5_"  style="overflow:visible;fill:#91C154;"/>
		<clipPath id="SVGID_6_">
			<use xlink:href="#SVGID_5_"  style="overflow:visible;"/>
		</clipPath>
		<rect x="425.8" y="49.8" class="st6" width="5.8" height="5.7"/>
		<rect x="425.8" y="34.5" class="st6" width="9.6" height="9.6"/>
		<rect x="439.2" y="34.5" class="st6" width="9.6" height="9.6"/>
		<rect x="443.1" y="49.8" class="st6" width="5.7" height="5.7"/>
		<rect x="422" y="26.8" class="st6" width="30.6" height="33.9"/>
	</g>
</g>
<g>
	<g>
		<defs>
			<path id="SVGID_7_" d="M408.7,58.6c2.5-1.8,4.2-4.7,4.2-8.1c0-2.1-0.6-4-1.7-5.6c-1.1-1.7-2.8-3-4.7-3.7
				c-1.1-0.4-2.3-0.6-3.5-0.6c-1.2,0-2.5,0.2-3.6,0.6c-1.9,0.7-3.5,2-4.7,3.7c-1.1,1.6-1.7,3.5-1.7,5.6c0,3.4,1.6,6.4,4.2,8.1
				c0.8,0.6,1.8,1,2.8,1.4c0.2,0,0.3,0.1,0.5,0.1l4.9,0C406.6,59.8,407.7,59.3,408.7,58.6z M404.8,57.1c-0.2,0.1-0.4,0.1-0.7,0.2
				c-0.1,0-0.2,0-0.3,0.1c-0.1,0-0.2,0-0.3,0c-0.1,0-0.2,0-0.3,0c-0.1,0-0.2,0-0.3,0c0,0-0.1,0-0.1,0c-0.2,0-0.4,0-0.6,0
				c0,0,0,0-0.1,0c0,0,0,0,0,0c0,0-0.1,0-0.1,0c-0.1,0-0.2,0-0.3,0c0,0,0,0,0,0c0,0-0.1,0-0.1,0c-2.2-0.4-4.1-2-4.9-4
				c-0.1-0.3-0.2-0.6-0.3-0.9c0-0.2-0.1-0.3-0.1-0.5c0-0.1,0-0.1,0-0.2c0-0.1-0.1-0.3-0.1-0.4c0,0,0-0.1,0-0.2c0-0.2,0-0.4,0-0.6
				l0-0.1c0-0.2,0-0.5,0.1-0.7c0-0.2,0.1-0.4,0.1-0.6c0-0.2,0.1-0.4,0.2-0.6c0.1-0.2,0.1-0.4,0.2-0.5c0.1-0.3,0.3-0.7,0.5-1
				c0.1-0.1,0.1-0.2,0.2-0.3c0.1-0.1,0.2-0.2,0.2-0.3c0.2-0.2,0.3-0.4,0.5-0.6c0.2-0.2,0.4-0.4,0.6-0.5c0.2-0.2,0.5-0.4,0.8-0.6
				c0.4-0.3,0.9-0.5,1.3-0.6c0.1,0,0.1-0.1,0.2-0.1c0.1,0,0.1,0,0.2-0.1c0,0,0,0,0.1,0c0.1,0,0.2-0.1,0.3-0.1c0.1,0,0.2,0,0.3-0.1
				c0.2,0,0.3-0.1,0.5-0.1c0,0,0.1,0,0.2,0c0.2,0,0.4,0,0.6,0l0.1,0c0.2,0,0.5,0,0.7,0.1c0.2,0,0.4,0,0.6,0.1c0.2,0,0.5,0.1,0.7,0.2
				c2.5,0.8,4.3,2.9,4.7,5.5c0,0.1,0.1,0.3,0.1,0.4c0,0.2,0,0.5,0,0.7l0,0.1c0,0.2,0,0.5-0.1,0.7c0,0.2,0,0.3-0.1,0.5
				c0,0.1,0,0.2,0,0.2c0,0.1-0.1,0.2-0.1,0.3c0,0,0,0,0,0.1c0,0.1-0.1,0.3-0.1,0.4c-0.7,1.9-2.1,3.4-4,4.1c-0.1,0.1-0.3,0.1-0.4,0.1
				C404.9,57.1,404.9,57.1,404.8,57.1z"/>
		</defs>
		<use xlink:href="#SVGID_7_"  style="overflow:visible;fill:#91C154;"/>
		<clipPath id="SVGID_8_">
			<use xlink:href="#SVGID_7_"  style="overflow:visible;"/>
		</clipPath>
		<rect x="396" y="43.5" class="st7" width="13.9" height="13.9"/>
		<rect x="393" y="40.5" class="st7" width="19.8" height="19.5"/>
	</g>
</g>
<g>
	<path class="st1" d="M340.7,50.4c-0.3,1.9-1,5.7-1.5,9h-2c-0.3,0-1.8,0-1.8,0s-0.5-0.1-0.8-0.1v0l0.1-0.9l1.7-11.5
		c0.3,0.4,0.6,0.7,1,1L340.7,50.4z"/>
	<path class="st1" d="M356.1,45.5l-2.6,14l-1.8,0l2.6-14.2c0.2,0,0.4,0.1,0.7,0.1C355.4,45.4,355.7,45.5,356.1,45.5z"/>
	<path class="st1" d="M360.5,43.3c-1.3,0.4-2.7,0.5-4.1,0.5c-0.4,0-0.8,0-1.2-0.1c-0.2,0-0.4,0-0.6-0.1c-3.2-0.5-6.2-2-8.4-4.1
		c-0.1-0.1-0.2-0.1-0.3-0.1c-0.2,0-0.5,0.1-0.5,0.4l-0.8,5.2c0,0.2,0,0.3,0.2,0.4l4.3,3.7c0.3,0.2,0.4,0.5,0.4,0.9l0.4,7.9
		c0,0.1,0,0.9,0.1,1.8l-4.2-0.1c0-0.2,0-0.5,0-0.5l-0.2-6.3c0-0.1-0.1-0.3-0.2-0.4l-2.5-2l-0.2-0.2l-4.3-3.4
		c-0.9-0.7-1.4-1.6-1.5-2.7c0-0.3,0-0.6,0-1l0.1-0.9l0.9-6c0.2-1.8,0.4-4.9,2.3-5.9c0.8-0.4,1.7-0.5,2.5-0.4
		c1.2,0.2,2.4,0.8,3.1,1.9l2.3,3.2c1.5,2.3,4,4,7.1,4.5c0.1,0,0.1,0,0.2,0c0.5,0.1,1,0.1,1.6,0.1c0.7,0,1.4-0.1,2.2-0.2
		c0.3-0.1,0.5-0.1,0.8-0.1C362.2,39.5,362.8,42.7,360.5,43.3z"/>
</g>
<g>
	<g>
		<defs>
			<path id="SVGID_9_" d="M380.8,58.6c2.6-1.8,4.2-4.7,4.2-8.1c0-2.1-0.6-4-1.6-5.6c-1.1-1.7-2.7-3-4.6-3.7
				c-1.1-0.4-2.3-0.7-3.6-0.7c-1.3,0-2.6,0.2-3.7,0.7c-1.9,0.7-3.5,2-4.6,3.7c-1.1,1.6-1.7,3.5-1.7,5.5c0,3.4,1.7,6.4,4.2,8.2
				c0.9,0.6,1.8,1,2.8,1.3l5.6,0C379,59.6,380,59.2,380.8,58.6z M377.1,57.1C377.1,57.1,377.1,57.1,377.1,57.1c-0.1,0-0.1,0-0.2,0
				c-0.1,0-0.3,0.1-0.4,0.1c-0.2,0-0.4,0.1-0.6,0.1c0,0-0.1,0-0.1,0c-0.2,0-0.4,0-0.6,0l-0.1,0c-0.2,0-0.5,0-0.7-0.1
				c-0.4,0-0.7-0.1-1.1-0.2c-0.2,0-0.3-0.1-0.5-0.2c-2.3-0.8-4.1-2.9-4.5-5.4c0-0.1,0-0.2-0.1-0.3c0,0,0-0.1,0-0.2c0,0,0,0,0-0.1
				c0-0.2,0-0.4,0-0.6l0-0.1c0-0.2,0-0.5,0.1-0.7c0-0.2,0.1-0.4,0.1-0.6c0-0.2,0.1-0.4,0.2-0.6c0.1-0.2,0.1-0.4,0.2-0.5
				c0.6-1.6,1.8-2.8,3.2-3.6c0.2-0.1,0.3-0.2,0.5-0.2c0.2-0.1,0.3-0.1,0.5-0.2c0.2-0.1,0.5-0.2,0.7-0.2c0.1,0,0.2-0.1,0.4-0.1
				c0,0,0,0,0,0c0.1,0,0.3,0,0.4-0.1c0,0,0.1,0,0.1,0c0.1,0,0.2,0,0.3,0c0.1,0,0.2,0,0.3,0c0.3,0,0.5,0,0.8,0.1
				c0.2,0,0.4,0.1,0.7,0.1c0,0,0,0,0,0c0.1,0,0.3,0.1,0.4,0.1c0,0,0.1,0,0.1,0c0,0,0,0,0,0c0.2,0.1,0.4,0.1,0.5,0.2
				c2.2,0.9,3.9,2.9,4.2,5.3c0,0,0,0,0,0c0,0,0,0.1,0,0.2c0,0,0,0,0,0c0,0.1,0,0.3,0,0.4c0,0.1,0,0.3,0,0.4c0,0.1,0,0.1,0,0.2
				c0,0.1,0,0.2,0,0.2c0,0.1,0,0.2,0,0.3c0,0.2,0,0.4-0.1,0.5c0,0.2-0.1,0.4-0.1,0.5c-0.6,2.2-2.2,4-4.3,4.7
				C377.4,57,377.3,57,377.1,57.1z"/>
		</defs>
		<use xlink:href="#SVGID_9_"  style="overflow:visible;fill:#91C154;"/>
		<clipPath id="SVGID_10_">
			<use xlink:href="#SVGID_9_"  style="overflow:visible;"/>
		</clipPath>
		<rect x="368.3" y="43.5" class="st8" width="13.9" height="13.9"/>
		<rect x="365.2" y="40.4" class="st8" width="19.8" height="19.4"/>
	</g>
</g>
</svg>
